<svg xmlns="http://www.w3.org/2000/svg" viewBox="0 0 56.65 55.57"><defs><style>.cls-1,.cls-2{fill:none;}.cls-2{stroke:#fff;stroke-miterlimit:10;stroke-width:0.6px;}.cls-3{fill:#fff;}</style></defs><title>Asset 2</title><g id="Layer_2" data-name="Layer 2"><g id="Layer_6" data-name="Layer 6"><path class="cls-1" d="M32.35,49.3s-.17-2.25-.36-5.53l-5.46.84c.52,2.79.82,4.69.82,4.69Z"/><polygon class="cls-1" points="33.19 13.32 33.34 13.3 33.18 13.3 33.19 13.32"/><path class="cls-1" d="M15.92,53.92l-.55-7.58L10.92,47c.16,4.24.43,7.27.43,7.27Z"/><path class="cls-2" d="M18.35,23.3c-4,0-4,9-4,9l1,14,11.16-1.73C25.11,37.08,21.35,23.3,18.35,23.3Z"/><path class="cls-2" d="M34.35,21.3c-.41-.49-3-3.28-3,5,0,5.39.35,12.57.64,17.47l5.33-.83Z"/><path class="cls-2" d="M16.35,20.3c8-1,11,10,11,10s1-13,5-12c.59.15,1.2.9,1.82,2.05l-1-7L1.33,17.49,6.15,47.76,10.92,47C10.53,37,9.33,21.18,16.35,20.3Z"/><path class="cls-2" d="M32,44c.15,2.48.28,3.75.33,4.18a.18.18,0,0,1-.16.2l-4.63.93a.19.19,0,0,1-.23-.15c-.08-.53-.34-2.14-.75-4.31a.19.19,0,0,0-.22-.16l-10.8,1.67a.2.2,0,0,0-.16.21l.52,7.21a.19.19,0,0,1-.17.2l-4.19.35a.19.19,0,0,1-.21-.17c-.06-.7-.27-3.35-.4-6.86a.2.2,0,0,0-.23-.19l-4.36.68a.18.18,0,0,0-.16.22l1.13,7.15a.2.2,0,0,0,.23.16l30.62-4.94a.2.2,0,0,0,.16-.22l-1-7a.21.21,0,0,0-.22-.17l-5,.77A.22.22,0,0,0,32,44Z"/><path class="cls-2" d="M31.35,9.3c1.13-1.14,0-1.55-1.91-1.64L.35,11.3l1,6.19,31.86-4.17v0H24.35S22.35,10.3,31.35,9.3Z"/><path class="cls-2" d="M33.18,13.3h.17l6-2h9V.3h-21l-10,7c0,2,4,1,4,1a54.3,54.3,0,0,1,8.09-.64"/><polygon class="cls-3" points="39.34 45.3 51.34 42.3 39.34 43.3 39.34 45.3"/><polygon class="cls-3" points="39.34 48.3 48.34 46.3 39.34 46.3 39.34 48.3"/><polygon class="cls-3" points="39.34 50.3 46.34 49.3 39.34 49.3 39.34 50.3"/><polyline class="cls-2" points="48.34 1.3 56.34 1.3 56.34 10.3 48.34 10.3 48.34 1.8"/></g></g></svg>