<svg xmlns="http://www.w3.org/2000/svg" viewBox="0 0 28.94 24.82"><defs><style>.cls-1{fill:none;}.cls-1,.cls-3{stroke:#fff;}.cls-1,.cls-2,.cls-3{stroke-miterlimit:10;}.cls-2{fill:#fec039;stroke:#fec039;}.cls-3{fill:#fff;}</style></defs><title>Asset 3</title><g id="Layer_2" data-name="Layer 2"><g id="Layer_6" data-name="Layer 6"><polyline class="cls-1" points="5.85 18.41 2.21 18.41 0.44 8.7 0 8.7 12.79 8.7 12.79 12.38"/><line class="cls-2" x1="2.21" y1="4.55" x2="2.21" y2="8.7"/><line class="cls-2" x1="3.44" y1="3.67" x2="3.44" y2="8.7"/><line class="cls-2" x1="4.76" y1="3.67" x2="4.76" y2="8.7"/><line class="cls-2" x1="5.65" y1="2.61" x2="5.65" y2="8.7"/><line class="cls-2" x1="6.88" y1="2.61" x2="6.88" y2="8.7"/><line class="cls-2" x1="8.12" y1="2.61" x2="8.12" y2="8.7"/><line class="cls-2" x1="9.26" y1="3.23" x2="9.26" y2="8.7"/><line class="cls-2" x1="10.32" y1="3.67" x2="10.32" y2="8.7"/><line class="cls-2" x1="11.38" y1="4.11" x2="11.38" y2="8.7"/><path class="cls-2" d="M5.65,19.39H23.4A59.49,59.49,0,0,1,5.65,19.39Z"/><polygon class="cls-1" points="6.4 21.23 6.4 23.88 7.68 24.32 22.59 24.32 23.12 23.52 23.12 21.23 6.4 21.23"/><line class="cls-3" x1="19.29" y1="5.02" x2="28.94" y2="5.02"/><path class="cls-2" d="M26.59.38S23.35,3.2,23.88,4.11"/><polyline class="cls-1" points="23.65 18.55 27.12 18.67 28.06 6.63 20.18 6.63 20.18 14.16"/><path class="cls-1" d="M20.65,14.48a6.93,6.93,0,0,1,2.47,3.17H21.49"/><path class="cls-1" d="M20.65,14.48a9.89,9.89,0,0,0-5.89-1.77C7.85,12.6,6.4,17.65,6.4,17.65H21.49"/><path class="cls-1" d="M21.49,17.65h1.63a6.93,6.93,0,0,0-2.47-3.17"/></g></g></svg>