<svg xmlns="http://www.w3.org/2000/svg" viewBox="0 0 31.34 32.78"><defs><style>.cls-1,.cls-2{fill:none;stroke:#fff;stroke-miterlimit:10;}.cls-1{stroke-width:0.3px;}.cls-2{stroke-width:0.25px;}.cls-3{fill:#fff;}</style></defs><title>Asset 4</title><g id="Layer_2" data-name="Layer 2"><g id="Layer_8" data-name="Layer 8"><polygon class="cls-1" points="0.2 11.39 16.97 32.64 3.15 8.45 0.2 11.39"/><path class="cls-1" d="M17,32.64l.27-.11L22.42,29,21.6,27l1.77-1.18,1.87,1.63,5.89-3.54L24.6,12.71,23,13.79l-.66-1L24,11.7,17.28.21,11.39,3.74l.82,2.08L9.85,7,9.49,4.82a.13.13,0,0,0-.2-.09L3.14,8.45M12.57,9l5.3,1.18v2.35L14.33,12l-.59,2.95H11.39Zm.53,10.57-.66-1,1.65-1.11.66,1Zm2.3-1.26-.73-1.09,1.65-1.11.73,1.08Zm2.41-1.69-.66-1,1.65-1.12.66,1Zm2.3-1.26-.73-1.08L21,13.2l.73,1.09Z"/><path class="cls-2" d="M3.14,8.45,17,32.64M11.61,19.09l.79,1.17-1.66,1.11L10,20.21Z"/><polygon class="cls-3" points="14.33 11.98 17.87 12.57 17.87 10.22 12.57 9.04 11.39 14.93 13.74 14.93 14.33 11.98"/><rect class="cls-3" x="12.6" y="17.97" width="2" height="1.18" transform="translate(-8.05 10.76) rotate(-33.96)"/><rect class="cls-3" x="10.18" y="19.53" width="2" height="1.41" transform="translate(-9.4 9.69) rotate(-33.96)"/><rect class="cls-3" x="14.86" y="16.59" width="2" height="1.31" transform="translate(-6.93 11.8) rotate(-33.96)"/><rect class="cls-3" x="17.31" y="15.03" width="2" height="1.18" transform="translate(-5.6 12.89) rotate(-33.96)"/><polygon class="cls-3" points="19.38 14.18 20.17 15.13 21.95 14.15 21.17 13.21 19.38 14.18"/><polygon class="cls-3" points="24.76 12.6 24.1 11.63 24 11.7 24.6 12.71 24.76 12.6"/><polygon class="cls-3" points="23 13.79 24.6 12.71 24 11.7 22.34 12.81 23 13.79"/></g></g></svg>