<svg xmlns="http://www.w3.org/2000/svg" viewBox="0 0 55.7 58.8"><defs><style>.cls-1{fill:none;stroke:#fff;stroke-miterlimit:10;stroke-width:2px;}.cls-2{fill:#fabe20;}.cls-3{fill:#fff;}</style></defs><title>Asset 1</title><g id="Layer_2" data-name="Layer 2"><g id="Layer_1-2" data-name="Layer 1"><polygon class="cls-1" points="1.34 20.38 29.82 56.47 6.34 15.38 1.34 20.38"/><path class="cls-1" d="M29.82,56.47l.52.91,9-6v-3l3-2,2,2,10-6L42.78,22.62l-2.72,1.83L39,22.79l2.81-1.89L30.34,1.38l-10,6,1,3-4,2-1-3-10,6m16,1,9,2v4l-6-1-1,5h-4Zm.9,18-1.11-1.66,2.81-1.89L26,32.44Zm3.91-2.14-1.24-1.89,2.81-1.89L30,30.3Zm4.09-2.86-1.11-1.66,2.81-1.89L34,27.44Zm3.91-2.14-1.24-1.89,2.81-1.89L38,25.3Z"/><path class="cls-1" d="M6.34,15.38,29.82,56.47m-9.1-23,1.33,2-2.81,1.89-1.33-2Z"/><polygon class="cls-2" points="25.34 21.38 31.34 22.38 31.34 18.38 22.34 16.38 20.34 26.38 24.34 26.38 25.34 21.38"/><rect class="cls-3" x="22.4" y="31.56" width="3.39" height="2" transform="translate(-14.08 19.01) rotate(-33.96)"/><rect class="cls-3" x="18.29" y="34.2" width="3.39" height="2.39" transform="translate(-16.36 17.2) rotate(-33.96)"/><rect class="cls-3" x="26.23" y="29.2" width="3.39" height="2.22" transform="translate(-12.17 20.77) rotate(-33.96)"/><rect class="cls-3" x="30.4" y="26.55" width="3.39" height="2" transform="translate(-9.92 22.63) rotate(-33.96)"/><rect class="cls-3" x="34.23" y="24.21" width="3.39" height="2.22" transform="translate(-8.01 24.39) rotate(-33.96)"/><polygon class="cls-3" points="43.05 22.44 41.94 20.78 41.77 20.9 42.78 22.63 43.05 22.44"/><polygon class="cls-3" points="40.06 24.45 42.78 22.63 41.77 20.9 38.95 22.79 40.06 24.45"/></g></g></svg>