<svg xmlns="http://www.w3.org/2000/svg" viewBox="0 0 53.67 56.7"><defs><style>.cls-1{fill:none;stroke:#fff;stroke-miterlimit:10;stroke-width:0.5px;}.cls-2{fill:#fabe20;}.cls-3{fill:#fff;}</style></defs><title>Asset 3</title><g id="Layer_2" data-name="Layer 2"><g id="Layer_7" data-name="Layer 7"><polygon class="cls-1" points="0.33 19.34 28.81 55.43 5.33 14.34 0.33 19.34"/><path class="cls-1" d="M28.81,55.43l.52.91,9-6v-3l3-2,2,2,10-6L41.77,21.58l-2.72,1.83-1.11-1.66,2.81-1.89L29.33.34l-10,6,1,3-4,2-1-3-10,6m16,1,9,2v4l-6-1-1,5h-4Zm.9,18-1.11-1.66,2.81-1.89L25,31.4Zm3.91-2.14L24.9,29.31l2.81-1.89L29,29.26Zm4.09-2.86-1.11-1.66,2.81-1.89L33,26.4Zm3.91-2.14L32.9,24.31l2.81-1.89L37,24.26Z"/><path class="cls-1" d="M5.33,14.34,28.81,55.43m-9.1-23,1.33,2-2.81,1.89-1.33-2Z"/><polygon class="cls-2" points="24.33 20.34 30.33 21.34 30.33 17.34 21.33 15.34 19.33 25.34 23.33 25.34 24.33 20.34"/><rect class="cls-3" x="21.39" y="30.52" width="3.39" height="2" transform="translate(-13.67 18.27) rotate(-33.96)"/><rect class="cls-3" x="17.28" y="33.16" width="3.39" height="2.39" transform="translate(-15.95 16.46) rotate(-33.96)"/><rect class="cls-3" x="25.23" y="28.17" width="3.39" height="2.22" transform="translate(-11.77 20.03) rotate(-33.96)"/><rect class="cls-3" x="29.39" y="25.52" width="3.39" height="2" transform="translate(-9.51 21.88) rotate(-33.96)"/><rect class="cls-3" x="33.23" y="23.17" width="3.39" height="2.22" transform="translate(-7.61 23.65) rotate(-33.96)"/><polygon class="cls-3" points="42.04 21.4 40.93 19.74 40.76 19.86 41.77 21.59 42.04 21.4"/><polygon class="cls-3" points="39.05 23.41 41.77 21.59 40.76 19.86 37.94 21.75 39.05 23.41"/></g></g></svg>