<svg xmlns="http://www.w3.org/2000/svg" viewBox="0 0 21.28 26.74"><defs><style>.cls-1,.cls-2{fill:none;stroke-miterlimit:10;}.cls-1{stroke:#fff;}.cls-2{stroke:#f4c025;}</style></defs><title>Asset 1</title><g id="Layer_2" data-name="Layer 2"><g id="Layer_3" data-name="Layer 3"><polyline class="cls-1" points="20.78 26.73 20.78 0.68 14.9 0.68 14.9 2.03 9.61 2.03 9.61 0.5 3.78 0.5 3.78 21.94 3.78 26.73"/><line class="cls-1" x1="7.96" y1="22.12" x2="10.43" y2="22.12"/><line class="cls-1" x1="11.58" y1="22.12" x2="13.69" y2="22.12"/><line class="cls-1" x1="14.4" y1="22.12" x2="17.05" y2="22.12"/><line class="cls-1" x1="17.84" y1="22.12" x2="20.78" y2="22.12"/><path class="cls-1" d="M3.78,3.5H.72a.22.22,0,0,0-.22.26L3.75,21.94a.22.22,0,0,0,.21.18h2.5"/><path class="cls-2" d="M12.38,9.66c4.14-5.1,4.9,3.25,4.67,3.08a8.88,8.88,0,0,0-.84.88L12.39,17c-.06.07.07.06,0,0l-4.2-3.13A2.62,2.62,0,0,1,8,13.57C7.79,12.92,6.46,5,12.16,9.69A.16.16,0,0,0,12.38,9.66Z"/></g></g></svg>