<?xml version="1.0" encoding="utf-8"?>
<!-- Generator: Adobe Illustrator 24.0.1, SVG Export Plug-In . SVG Version: 6.00 Build 0)  -->
<svg version="1.1" id="Layer_1" xmlns="http://www.w3.org/2000/svg" xmlns:xlink="http://www.w3.org/1999/xlink" x="0px" y="0px"
	 viewBox="0 0 50 51" style="enable-background:new 0 0 50 51;" xml:space="preserve">
<style type="text/css">
	.st0{fill:none;stroke:#FFFFFF;stroke-width:0.75;stroke-miterlimit:10;}
	.st1{fill:#FFFFFF;}
	.st2{fill:#FFC038;}
	.st3{fill:none;}
	.st4{fill:none;stroke:#FFFFFF;stroke-miterlimit:10;}
</style>
<g id="Layer_2_1_">
</g>
<title>Asset 1</title>
<circle class="st0" cx="13.5" cy="37.5" r="1.5"/>
<circle class="st1" cx="35.5" cy="37.5" r="1.5"/>
<circle class="st1" cx="17.3" cy="38.7" r="0.8"/>
<circle class="st1" cx="20.3" cy="39.7" r="0.8"/>
<circle class="st1" cx="23.3" cy="40.7" r="0.8"/>
<circle class="st1" cx="26.3" cy="40.7" r="0.8"/>
<circle class="st1" cx="29.3" cy="40.7" r="0.8"/>
<circle class="st1" cx="32.3" cy="39.7" r="0.8"/>
<path class="st2" d="M32.5,20.5l1,12h3c0,0,0-21-6-21c-4-1-6,7-6,7s-2-8-7-7c-5,2-6,21-6,21h4v-11c0,0,0-8,3-8s4,7,4,7v11h4v-9
	c0,0,0.8-9,3-9C31.5,13.5,32.5,20.5,32.5,20.5z"/>
<ellipse class="st3" cx="24.3" cy="26" rx="10" ry="9.8"/>
<ellipse class="st4" cx="25" cy="25.5" rx="24.5" ry="25"/>
</svg>
