<svg xmlns="http://www.w3.org/2000/svg" viewBox="0 0 50 51"><defs><style>.cls-1,.cls-4,.cls-5{fill:none;}.cls-1,.cls-5{stroke:#fff;stroke-miterlimit:10;}.cls-1{stroke-width:0.6px;}.cls-2{fill:#fff;}.cls-3{fill:#ffc038;}</style></defs><title>Asset 1</title><g id="Layer_2" data-name="Layer 2"><g id="Layer_2-2" data-name="Layer 2"><circle class="cls-1" cx="13.5" cy="37.5" r="1.5"/><circle class="cls-2" cx="35.5" cy="37.5" r="1.5"/><circle class="cls-2" cx="17.25" cy="38.75" r="0.75"/><circle class="cls-2" cx="20.25" cy="39.75" r="0.75"/><circle class="cls-2" cx="23.25" cy="40.75" r="0.75"/><circle class="cls-2" cx="26.25" cy="40.75" r="0.75"/><circle class="cls-2" cx="29.25" cy="40.75" r="0.75"/><circle class="cls-2" cx="32.25" cy="39.75" r="0.75"/><path class="cls-3" d="M48.5,34.5l1,12h3s0-21-6-21c-4-1-6,7-6,7s-2-8-7-7c-5,2-6,21-6,21h4v-11s0-8,3-8,4,7,4,7v11h4v-9s.76-9,3-9C47.5,27.5,48.5,34.5,48.5,34.5Z" transform="translate(-16 -14)"/><ellipse class="cls-4" cx="24.25" cy="26" rx="10" ry="9.8"/><ellipse class="cls-5" cx="25" cy="25.5" rx="24.5" ry="25"/></g></g></svg>