<svg xmlns="http://www.w3.org/2000/svg" viewBox="0 0 52 53"><defs><style>.cls-1,.cls-4,.cls-5{fill:none;}.cls-1,.cls-5{stroke:#fff;stroke-miterlimit:10;}.cls-1{stroke-width:0.75px;}.cls-2{fill:#fff;}.cls-3{fill:#ffc038;}.cls-5{stroke-width:3px;}</style></defs><title>Asset 1</title><g id="Layer_2" data-name="Layer 2"><g id="Layer_1-2" data-name="Layer 1"><circle class="cls-1" cx="14.5" cy="38.5" r="1.5"/><circle class="cls-2" cx="36.5" cy="38.5" r="1.5"/><circle class="cls-2" cx="18.25" cy="39.75" r="0.75"/><circle class="cls-2" cx="21.25" cy="40.75" r="0.75"/><circle class="cls-2" cx="24.25" cy="41.75" r="0.75"/><circle class="cls-2" cx="27.25" cy="41.75" r="0.75"/><circle class="cls-2" cx="30.25" cy="41.75" r="0.75"/><circle class="cls-2" cx="33.25" cy="40.75" r="0.75"/><path class="cls-3" d="M33.5,21.5l1,12h3s0-21-6-21c-4-1-6,7-6,7s-2-8-7-7c-5,2-6,21-6,21h4v-11s0-8,3-8,4,7,4,7v11h4v-9s.76-9,3-9C32.5,14.5,33.5,21.5,33.5,21.5Z"/><ellipse class="cls-4" cx="25.25" cy="27" rx="10" ry="9.8"/><ellipse class="cls-5" cx="26" cy="26.5" rx="24.5" ry="25"/></g></g></svg>