<svg xmlns="http://www.w3.org/2000/svg" viewBox="0 0 56.65 55.56"><defs><style>.cls-1,.cls-2{fill:none;}.cls-2{stroke:#fff;stroke-miterlimit:10;stroke-width:0.6px;}.cls-3{fill:#fff;}</style></defs><title>Asset 1</title><g id="Layer_2" data-name="Layer 2"><g id="Layer_1-2" data-name="Layer 1"><g id="Layer_6" data-name="Layer 6"><path class="cls-1" d="M32.35,49.3s-.16-2.25-.35-5.53l-5.47.84c.53,2.79.82,4.69.82,4.69Z"/><polygon class="cls-1" points="33.19 13.32 33.35 13.3 33.19 13.3 33.19 13.32"/><path class="cls-1" d="M15.92,53.92l-.57-7.62L10.9,47c.16,4.24.43,7.27.43,7.27Z"/><path class="cls-2" d="M18.35,23.3c-4,0-4,9-4,9l1,14,11.16-1.73C25.12,37.08,21.35,23.3,18.35,23.3Z"/><path class="cls-2" d="M34.35,21.3c-.41-.49-3-3.28-3,5,0,5.39.36,12.57.65,17.47l5.32-.83Z"/><path class="cls-2" d="M16.35,20.3c8-1,11,10,11,10s1-13,5-12c.59.15,1.2.9,1.82,2l-1-7L1.35,17.49,6.17,47.76,10.94,47C10.54,37,9.35,21.18,16.35,20.3Z"/><path class="cls-2" d="M32,44c.15,2.48.27,3.75.32,4.18a.19.19,0,0,1-.15.2l-4.63.93a.19.19,0,0,1-.23-.14h0c-.08-.53-.35-2.14-.75-4.31a.21.21,0,0,0-.22-.16L15.55,46.3a.2.2,0,0,0-.17.21l.53,7.21a.2.2,0,0,1-.18.2h0l-4.19.35a.19.19,0,0,1-.21-.17h0c-.05-.7-.26-3.35-.4-6.86a.2.2,0,0,0-.19-.19h0l-4.37.68a.19.19,0,0,0-.16.22h0L7.32,55.1a.2.2,0,0,0,.22.16l30.62-5a.2.2,0,0,0,.16-.22h0l-1-7a.2.2,0,0,0-.21-.17h0l-5,.77A.21.21,0,0,0,32,44Z"/><path class="cls-2" d="M31.35,9.3c1.14-1.14,0-1.55-1.91-1.64L.35,11.3l1,6.19L33.19,13.3H24.35S22.35,10.3,31.35,9.3Z"/><path class="cls-2" d="M33.19,13.3h.16l6-2h9V.3h-21l-10,7c0,2,4,1,4,1a54.7,54.7,0,0,1,8.09-.64"/><polygon class="cls-3" points="39.35 45.3 51.35 42.3 39.35 43.3 39.35 45.3"/><polygon class="cls-3" points="39.35 48.3 48.35 46.3 39.35 46.3 39.35 48.3"/><polygon class="cls-3" points="39.35 50.3 46.35 49.3 39.35 49.3 39.35 50.3"/><polyline class="cls-2" points="48.35 1.3 56.35 1.3 56.35 10.3 48.35 10.3 48.35 1.8"/></g></g></g></svg>