<?xml version="1.0" encoding="utf-8"?>
<!-- Generator: Adobe Illustrator 24.0.1, SVG Export Plug-In . SVG Version: 6.00 Build 0)  -->
<svg version="1.1" xmlns="http://www.w3.org/2000/svg" xmlns:xlink="http://www.w3.org/1999/xlink" x="0px" y="0px"
	 viewBox="0 0 20.1 28.3" style="enable-background:new 0 0 20.1 28.3;" xml:space="preserve">
<style type="text/css">
	.st0{fill:#FEC039;}
	.st1{fill:none;stroke:#FFFFFF;stroke-miterlimit:10;}
</style>
<g id="Layer_2">
</g>
<g id="Layer_1">
	<title>Asset 2</title>
	<path class="st0" d="M13.5,8.9l0.4,4.5H15c0,0,0-7.8-2.2-7.8c-1.5-0.4-2.2,2.6-2.2,2.6s-0.8-3-2.6-2.6C6,6.4,5.7,13.4,5.7,13.4h1.5
		V9.3c0,0,0-3,1.1-3s1.5,2.6,1.5,2.6V13h1.5V9.7c0,0,0.3-3.3,1.1-3.3S13.5,8.9,13.5,8.9z"/>
	<circle class="st1" cx="10.3" cy="10" r="6.7"/>
	<path class="st1" d="M19.6,10c0-5.3-4.3-9.5-9.5-9.5S0.5,4.7,0.5,10c0,3.3,2.6,6.4,4.2,7.9l0.4,0.6l5.5,8.9L17,16.7h-0.1
		C17,16.7,19.6,12.6,19.6,10z"/>
</g>
</svg>
