<svg xmlns="http://www.w3.org/2000/svg" viewBox="0 0 20.06 28.34"><defs><style>.cls-1{fill:#fec039;}.cls-2{fill:none;stroke:#fff;stroke-miterlimit:10;}</style></defs><title>Asset 2</title><g id="Layer_2" data-name="Layer 2"><g id="Layer_5" data-name="Layer 5"><path class="cls-1" d="M13.72,8.33l.37,4.46h1.12S15.21,5,13,5c-1.49-.37-2.24,2.6-2.24,2.6S10,4.61,8.14,5c-1.86.74-2.23,7.81-2.23,7.81H7.4V8.7s0-3,1.11-3S10,8.33,10,8.33v4.09h1.49V9.07s.28-3.35,1.11-3.35S13.72,8.33,13.72,8.33Z"/><circle class="cls-2" cx="10.32" cy="10.03" r="6.65"/><path class="cls-2" d="M19.56,10A9.53,9.53,0,0,0,.5,10c0,3.28,2.57,6.38,4.19,7.89l.37.61,5.5,8.85L17,16.68h-.13C17,16.68,19.56,12.62,19.56,10Z"/></g></g></svg>