<svg xmlns="http://www.w3.org/2000/svg" viewBox="0 0 20.53 24.56"><defs><style>.cls-1{fill:none;}.cls-1,.cls-2{stroke:#fff;stroke-miterlimit:10;}.cls-2{fill:#fec039;}</style></defs><title>Asset 6</title><g id="Layer_2" data-name="Layer 2"><g id="Layer_9" data-name="Layer 9"><path class="cls-1" d="M1.08,2,10.41.51a.88.88,0,0,1,.23,0L19.45,2a.69.69,0,0,1,.58.68V14.8a.58.58,0,0,1-.08.31c-.57,1.12-4.41,8.26-9.42,8.91S1.22,17.12.58,15.94a.73.73,0,0,1-.08-.33V2.73A.71.71,0,0,1,1.08,2Z"/><path class="cls-2" d="M8.5,12.27v4.22h3.41V12.27s2-4.37-1.7-4.37S8.5,12.27,8.5,12.27Z"/></g></g></svg>