<?xml version="1.0" encoding="utf-8"?>
<!-- Generator: Adobe Illustrator 24.0.1, SVG Export Plug-In . SVG Version: 6.00 Build 0)  -->
<svg version="1.1" id="Layer_1" xmlns="http://www.w3.org/2000/svg" xmlns:xlink="http://www.w3.org/1999/xlink" x="0px" y="0px"
	 viewBox="0 0 1334 678.4" style="enable-background:new 0 0 1334 678.4;" xml:space="preserve">
<style type="text/css">
	.st0{fill:#FF1D25;}
	.st1{fill:none;stroke:#FFFFFF;stroke-miterlimit:10;}
	.st2{fill:#CC0E0E;stroke:#000000;stroke-miterlimit:10;}
	.st3{fill:none;}
	.st4{fill:none;stroke:#FFFFFF;stroke-width:0.6;stroke-miterlimit:10;}
	.st5{fill:#FFFFFF;}
	.st6{fill:#FFC038;}
	.st7{fill:none;stroke:#FFFA14;stroke-width:0.6;stroke-miterlimit:10;}
	.st8{fill:none;stroke:#FFFFFF;stroke-width:0.5;stroke-miterlimit:10;}
	.st9{fill:#FABE20;}
	.st10{fill:none;stroke:#FFFFFF;stroke-width:0.3;stroke-miterlimit:10;}
	.st11{fill:none;stroke:#FFFFFF;stroke-width:0.25;stroke-miterlimit:10;}
</style>
<title>Mcdelivery</title>
<g id="Layer_4">
	<rect x="0" y="0.2" class="st0" width="1334" height="678"/>
	<ellipse class="st1" cx="541.5" cy="449.2" rx="24.5" ry="25"/>
</g>
<g id="Layer_1_1_">
	<path class="st2" d="M794.5,212.5"/>
	<path class="st2" d="M49.5,82.5"/>
	<circle class="st3" cx="608" cy="456" r="26"/>
	<circle class="st3" cx="631" cy="465" r="26"/>
</g>
<g id="Layer_2_1_">
	<circle class="st4" cx="530.5" cy="460.5" r="1.5"/>
	<circle class="st5" cx="552.5" cy="460.5" r="1.5"/>
	<circle class="st5" cx="534.3" cy="461.8" r="0.8"/>
	<circle class="st5" cx="537.3" cy="462.8" r="0.8"/>
	<circle class="st5" cx="540.3" cy="463.8" r="0.8"/>
	<circle class="st5" cx="543.3" cy="463.8" r="0.8"/>
	<circle class="st5" cx="546.3" cy="463.8" r="0.8"/>
	<circle class="st5" cx="549.3" cy="462.8" r="0.8"/>
	<path class="st6" d="M549.5,443.5l1,12h3c0,0,0-21-6-21c-4-1-6,7-6,7s-2-8-7-7c-5,2-6,21-6,21h4v-11c0,0,0-8,3-8s4,7,4,7v11h4v-9
		c0,0,0.8-9,3-9C548.5,436.5,549.5,443.5,549.5,443.5z"/>
	<path class="st7" d="M559.5,441.5"/>
	<ellipse class="st3" cx="541.3" cy="449" rx="10" ry="9.8"/>
</g>
<g id="Layer_6">
	<path class="st3" d="M545,571c0,0-0.2-2.3-0.3-5.5l-5.5,0.8c0.5,2.8,0.8,4.7,0.8,4.7H545z"/>
	<polygon class="st3" points="545.8,535 546,535 545.8,535 	"/>
	<path class="st3" d="M528.6,575.6L528,568l-4.5,0.7c0.2,4.2,0.4,7.3,0.4,7.3L528.6,575.6z"/>
	<path class="st4" d="M531,545c-4,0-4,9-4,9l1,14l11.2-1.7C537.8,558.8,534,545,531,545z"/>
	<path class="st4" d="M547,543c-0.4-0.5-3-3.3-3,5c0,5.4,0.4,12.6,0.7,17.5l5.3-0.8L547,543z"/>
	<path class="st4" d="M529,542c8-1,11,10,11,10s1-13,5-12c0.6,0.2,1.2,0.9,1.8,2l-1-7l-31.8,4.2l4.8,30.3l4.8-0.7
		C523.2,558.7,522,542.9,529,542z"/>
	<path class="st4" d="M544.7,565.7c0.2,2.5,0.3,3.8,0.3,4.2c0,0.1-0.1,0.2-0.2,0.2l-4.6,0.9c-0.1,0-0.2,0-0.2-0.1c0,0,0,0,0,0
		c-0.1-0.5-0.3-2.1-0.8-4.3c0-0.1-0.1-0.2-0.2-0.2l-10.8,1.7c-0.1,0-0.2,0.1-0.2,0.2l0.5,7.2c0,0.1-0.1,0.2-0.2,0.2c0,0,0,0,0,0
		l-4.2,0.3c-0.1,0-0.2-0.1-0.2-0.2c0,0,0,0,0,0c0-0.7-0.3-3.3-0.4-6.9c0-0.1-0.1-0.2-0.2-0.2c0,0,0,0,0,0l-4.4,0.7
		c-0.1,0-0.2,0.1-0.2,0.2c0,0,0,0,0,0l1.1,7.2c0,0.1,0.1,0.2,0.2,0.2l30.6-5c0.1,0,0.2-0.1,0.2-0.2c0,0,0,0,0,0l-1-7
		c0-0.1-0.1-0.2-0.2-0.2c0,0,0,0,0,0l-5,0.8C544.7,565.4,544.6,565.5,544.7,565.7C544.7,565.6,544.7,565.6,544.7,565.7z"/>
	<path class="st4" d="M544,531c1.1-1.1,0-1.5-1.9-1.6L513,533l1,6.2l31.8-4.2l0,0H537C537,535,535,532,544,531z"/>
	<path class="st4" d="M545.8,535h0.2l6-2h9v-11h-21l-10,7c0,2,4,1,4,1c2.7-0.4,5.4-0.6,8.1-0.6"/>
	<path class="st4" d="M545,529"/>
	<polygon class="st5" points="552,567 564,564 552,565 	"/>
	<polygon class="st5" points="552,570 561,568 552,568 	"/>
	<polygon class="st5" points="552,572 559,571 552,571 	"/>
	<polyline class="st4" points="561,523 569,523 569,532 561,532 561,523.5 	"/>
</g>
<g id="Layer_7">
	<polygon class="st8" points="515,641 543.5,677.1 520,636 	"/>
	<path class="st8" d="M543.5,677.1l0.5,0.9l9-6v-3l3-2l2,2l10-6l-11.6-19.8l-2.7,1.8l-1.1-1.7l2.8-1.9L544,622l-10,6l1,3l-4,2l-1-3
		l-10,6 M536,637l9,2v4l-6-1l-1,5h-4L536,637z M536.9,655l-1.1-1.7l2.8-1.9l1.1,1.7L536.9,655z M540.8,652.9l-1.2-1.9l2.8-1.9
		l1.2,1.8L540.8,652.9z M544.9,650l-1.1-1.7l2.8-1.9l1.1,1.7L544.9,650z M548.8,647.9l-1.2-1.9l2.8-1.9l1.2,1.8L548.8,647.9z"/>
	<path class="st8" d="M520,636l23.5,41.1 M534.4,654.1l1.3,2l-2.8,1.9l-1.3-2L534.4,654.1z"/>
	<polygon class="st9" points="539,642 545,643 545,639 536,637 534,647 538,647 	"/>
	
		<rect x="536.1" y="652.1" transform="matrix(0.8294 -0.5586 0.5586 0.8294 -273.1295 411.8016)" class="st5" width="3.4" height="2"/>
	
		<rect x="531.9" y="654.8" transform="matrix(0.8294 -0.5586 0.5586 0.8294 -275.4312 409.9948)" class="st5" width="3.4" height="2.4"/>
	
		<rect x="539.9" y="649.8" transform="matrix(0.8294 -0.5586 0.5586 0.8294 -271.2144 413.5727)" class="st5" width="3.4" height="2.2"/>
	
		<rect x="544.1" y="647.1" transform="matrix(0.8294 -0.5586 0.5586 0.8294 -268.9736 415.4197)" class="st5" width="3.4" height="2"/>
	
		<rect x="547.9" y="644.8" transform="matrix(0.8294 -0.5586 0.5586 0.8294 -267.0603 417.1852)" class="st5" width="3.4" height="2.2"/>
	<polygon class="st5" points="556.7,643 555.6,641.4 555.4,641.5 556.4,643.2 	"/>
	<polygon class="st5" points="553.7,645.1 556.4,643.2 555.4,641.5 552.6,643.4 	"/>
</g>
<g id="Layer_8">
	<polygon class="st10" points="811.3,49.3 828,70.5 814.2,46.3 	"/>
	<path class="st10" d="M828,70.5l0.3-0.1l5.2-3.6l-0.8-1.9l1.8-1.2l1.9,1.6l5.9-3.5l-6.5-11.2l-1.6,1.1l-0.7-1l1.7-1.1L828.3,38
		l-5.9,3.5l0.8,2.1l-2.3,1.2l-0.4-2.2c0-0.1-0.1-0.1-0.1-0.1c0,0,0,0-0.1,0l-6.1,3.7 M823.6,46.9l5.3,1.2v2.4l-3.5-0.6l-0.6,2.9
		h-2.4L823.6,46.9z M824.1,57.5l-0.7-1l1.7-1.1l0.7,1L824.1,57.5z M826.4,56.2l-0.7-1.1l1.7-1.1l0.7,1.1L826.4,56.2z M828.9,54.5
		l-0.7-1l1.7-1.1l0.7,1L828.9,54.5z M831.2,53.3l-0.7-1.1l1.7-1.1l0.7,1.1L831.2,53.3z"/>
	<path class="st11" d="M814.2,46.3L828,70.5 M820.7,48.7l2,8.3l0.8,1.2l-1.7,1.1l-0.8-1.2L820.7,48.7z"/>
	<polygon class="st5" points="825.4,49.9 828.9,50.4 828.9,48.1 823.6,46.9 822.4,52.8 824.8,52.8 	"/>
	
		<rect x="823.6" y="55.8" transform="matrix(0.8294 -0.5586 0.5586 0.8294 109.1461 470.2755)" class="st5" width="2" height="1.2"/>
	
		<rect x="821.2" y="57.4" transform="matrix(0.8294 -0.5586 0.5586 0.8294 107.7937 469.2123)" class="st5" width="2" height="1.4"/>
	
		<rect x="825.9" y="54.4" transform="matrix(0.8294 -0.5586 0.5586 0.8294 110.2791 471.3087)" class="st5" width="2" height="1.3"/>
	<rect x="828.3" y="52.9" transform="matrix(0.8294 -0.5586 0.5586 0.8294 111.596 472.403)" class="st5" width="2" height="1.2"/>
	<polygon class="st5" points="830.4,52 831.2,53 833,52 832.2,51.1 	"/>
	<polygon class="st5" points="835.8,50.5 835.2,49.5 835,49.6 835.6,50.6 	"/>
	<polygon class="st5" points="834,51.7 835.6,50.6 835,49.6 833.4,50.7 	"/>
</g>
</svg>
